<?xml version="1.0" encoding="UTF-8" standalone="no"?>
<!-- Created with Inkscape (http://www.inkscape.org/) -->
<svg
   xmlns:svg="http://www.w3.org/2000/svg"
   xmlns="http://www.w3.org/2000/svg"
   version="1.0"
   width="400"
   height="300"
   id="Sydbox">
  <defs
     id="defs4" />
  <g
     id="Logo">
    <g
       transform="matrix(0.5666667,0,0,0.5666667,88.215519,37.04075)"
       id="Cat">
      <path
         d="M 334.27765,69.617363 C 334.02432,69.618663 333.77994,69.609923 333.53072,69.648553 C 330.58282,70.629643 328.93172,73.546233 326.59042,75.418703 C 317.66488,83.808373 306.01519,88.870153 293.94304,90.389873 C 286.33772,91.649003 278.72065,89.816823 271.34818,87.988253 C 261.31399,85.128173 251.83352,79.692173 245.32985,71.332813 C 243.23482,68.871293 238.85989,69.423203 237.6115,72.455653 C 233.9187,83.107963 232.1565,94.345623 230.85794,105.517 C 228.3897,128.45836 228.10998,151.57026 228.36815,174.63396 L 352.60875,174.63396 C 352.66902,173.88866 352.64901,173.14876 352.5465,172.41946 C 351.07745,145.63846 349.27815,118.76957 344.08121,92.417223 C 342.63572,85.580093 341.06019,78.704723 338.57254,72.174943 C 337.84013,70.498113 336.05094,69.608263 334.27765,69.617363 z"
         id="Cat Body Outline"
         style="opacity:1;fill:#888a85;fill-opacity:1" />
      <path
         d="M 248.81556,67.558833 C 248.41446,67.576933 247.99028,67.650013 247.57067,67.777163 C 244.34282,70.351413 244.06266,75.002833 242.37323,78.600073 C 235.6113,98.026833 234.67153,118.80281 233.40997,139.17096 C 232.98719,150.97516 232.73012,162.81616 232.78753,174.63396 L 347.66028,174.63396 C 347.65797,174.32886 347.66341,174.01226 347.69141,173.72946 C 346.27087,148.06766 344.21671,122.37536 339.13275,97.158093 C 337.50147,90.267603 335.89686,83.205743 333.095,76.728673 C 330.74082,73.099193 326.68492,76.362243 324.16287,78.038653 C 310.42409,86.514973 293.13272,89.045703 277.75939,84.089503 C 267.97312,81.649193 258.99105,76.335563 252.08341,68.868813 C 251.1303,67.958503 250.01887,67.504523 248.81556,67.558833 z"
         id="Cat Body Fill"
         style="opacity:1;fill:#d3d7cf;fill-opacity:1" />
      <path
         d="M 234.0372,-65.327317 C 251.17296,-58.683667 262.93184,-23.175567 269.6892,-0.82634654 C 256.19297,2.1187535 242.44236,22.233823 228.81021,24.499743 C 198.99011,18.088003 225.09206,-54.291637 234.0372,-65.327317 z"
         id="Cat Left Ear"
         style="opacity:1;fill:#2e3436;fill-opacity:1" />
      <path
         d="M 345.79034,-65.366057 C 328.65459,-58.722407 316.8957,-23.214307 310.13836,-0.86508654 C 323.63457,2.0800235 337.38518,22.195083 351.01733,24.461013 C 380.83744,18.049263 354.73549,-54.330377 345.79034,-65.366057 z"
         id="Cat Right Ear"
         style="opacity:1;fill:#2e3436;fill-opacity:1" />
      <path
         d="M 287.74642,101.5934 C 237.72637,96.852553 230.42831,67.139703 217.78156,15.511153 C 242.27031,-32.899747 334.3248,-39.000367 362.18947,15.161523 C 352.14256,61.751733 334.04459,99.305943 287.74642,101.5934 z"
         id="Cat Outer Face"
         style="opacity:1;fill:#888a85;fill-opacity:1" />
      <path
         d="M 231.31927,17.464193 C 235.71458,34.423123 244.93796,48.189163 253.8836,63.392933 C 263.73497,78.393663 276.30564,90.550313 294.07759,88.109433 C 307.91066,86.352563 316.18035,74.108373 324.16129,62.609403 C 334.93499,47.984303 344.45915,34.593753 348.74406,17.214673 C 324.05655,9.2095935 326.1383,-8.1935465 287.44909,-6.4982165 C 248.77154,-4.8033965 256.41008,10.792553 231.31927,17.464193 z"
         id="Cat Inner Face"
         style="opacity:1;fill:#2e3436;fill-opacity:1" />
      <path
         d="M 278.69913,42.149513 C 286.25207,41.146533 292.67459,42.184763 299.52889,43.870243 C 298.00949,49.987283 293.64718,57.712673 287.59427,59.834503 C 282.24665,57.065443 279.06929,48.757193 278.69913,42.149513 z"
         id="Cat Nose"
         style="fill:#888a85;fill-opacity:1" />
      <path
         d="M 288.07182,54.833823 C 284.96081,61.645503 282.9261,69.585803 274.50245,70.304033 L 272.91521,73.516603 C 279.50861,72.405263 284.98897,67.269353 287.64055,61.419353 C 290.86739,68.641433 296.48907,70.935483 303.63302,71.957103 L 304.50444,70.335223 C 295.09297,69.724423 290.58742,63.273133 288.07182,54.833823 z"
         id="Cat Mouth"
         style="fill:#888a85;fill-opacity:1" />
      <g
         transform="translate(214.91377,-65.366037)"
         id="Cat Left Eye">
        <path
           d="M 42.629253,85.114997 C 45.170315,83.772392 53.449892,84.221158 55.738475,84.738502 C 57.959913,85.240675 63.672511,90.21401 64.539417,93.146654 C 62.113204,93.71007 54.896924,94.782006 52.631679,93.831037 C 48.409334,92.058449 43.920254,87.405727 42.629253,85.114997 z"
           id="Cat Left Eye Iris"
           style="fill:#3465a4;fill-opacity:1" />
        <path
           d="M 48.77941,87.398348 C 48.69626,87.456192 49.077071,87.690562 49.177421,87.812683 C 50.567774,89.03226 52.08103,90.13825 53.772434,90.895837 C 54.582453,91.124402 55.441759,91.020969 56.272427,91.037309 C 57.184696,91.006259 58.155145,90.95418 59.030526,90.834453 C 57.838023,89.692256 56.569951,88.57575 55.088003,87.833616 C 54.486529,87.660758 53.840438,87.638621 53.217523,87.565019 C 51.741281,87.419739 50.265019,87.383577 48.77941,87.398348 z"
           id="Cat Left Eye Pupil"
           style="opacity:1;fill:#2e3436;fill-opacity:1" />
      </g>
      <g
         transform="matrix(-1,0,0,1,365.89419,-65.366037)"
         id="Cat Right Eye">
        <path
           d="M 42.629253,85.114997 C 45.170315,83.772392 53.449892,84.221158 55.738475,84.738502 C 57.959913,85.240675 63.672511,90.21401 64.539417,93.146654 C 62.113204,93.71007 54.896924,94.782006 52.631679,93.831037 C 48.409334,92.058449 43.920254,87.405727 42.629253,85.114997 z"
           id="Cat Right Eye Iris"
           style="fill:#3465a4;fill-opacity:1" />
        <path
           d="M 48.77941,87.398348 C 48.69626,87.456192 49.077071,87.690562 49.177421,87.812683 C 50.567774,89.03226 52.08103,90.13825 53.772434,90.895837 C 54.582453,91.124402 55.441759,91.020969 56.272427,91.037309 C 57.184696,91.006259 58.155145,90.95418 59.030526,90.834453 C 57.838023,89.692256 56.569951,88.57575 55.088003,87.833616 C 54.486529,87.660758 53.840438,87.638621 53.217523,87.565019 C 51.741281,87.419739 50.265019,87.383577 48.77941,87.398348 z"
           id="Cat Right Eye Pupil"
           style="opacity:1;fill:#2e3436;fill-opacity:1" />
      </g>
    </g>
    <g
       id="Light Beam">
      <path
         d="M 94.40625,197.15575 C 94.55127,200.32313 94.70703,210.48996 94.875,213.656 C 86.52818,215.40576 78.22876,217.34991 69.9375,219.3435 C 46.72739,225.39603 23.36754,230.87762 0,236.281 L 0,220.93775 C 20.3414,216.42873 40.6284,211.65547 60.6875,205.99975 C 71.90245,202.96548 83.09458,199.82501 94.40625,197.15575 z"
         id="Light Beam Outline"
         style="fill:#ad7fa8;fill-opacity:1" />
      <path
         d="M 94.40625,200.15625 C 94.55127,203.32363 94.70703,206.49021 94.875,209.65625 C 86.52818,211.40601 78.22876,213.35016 69.9375,215.34375 C 46.72739,221.39628 23.36754,226.87787 0,232.28125 L 0,223.9375 C 20.3414,219.42848 40.6284,214.65572 60.6875,209 C 71.90245,205.96573 83.09458,202.82551 94.40625,200.15625 z"
         id="Light Beam Fill"
         style="fill:#eeeeec;fill-opacity:1" />
    </g>
    <g
       transform="matrix(1,0,0,1.0122006,0,-5.4213701)"
       id="Spectrum">
      <path
         d="M 308.15625,192.71875 L 305.875,194.3125 C 305.76805,196.88362 305.62125,199.46092 305.5,202.03125 C 317.79347,204.23461 329.96046,207.11386 342.09375,210.03125 C 361.32723,215.04679 380.6436,219.64605 400,224.15625 L 400,215.90625 C 383.68479,212.1746 367.42619,208.19956 351.3125,203.65625 C 336.99151,199.78162 322.68872,195.74192 308.15625,192.71875 z"
         id="Spectrum Orange"
         style="fill:#f57900;fill-opacity:1" />
      <path
         d="M 306.1875,185.65625 C 306.0729,188.86106 305.97912,192.04622 305.84375,195.25 C 315.29726,197.15906 324.68569,199.37039 334.0625,201.625 C 355.94679,207.33179 377.96936,212.52103 400,217.625 L 400,209.34375 C 380.98973,205.0903 362.06733,200.53798 343.3125,195.25 C 330.97628,191.91236 318.65516,188.47717 306.1875,185.65625 z"
         id="Spectrum Red"
         style="fill:#cc0000;fill-opacity:1" />
      <path
         d="M 305.59375,200.15625 C 305.44873,203.32363 305.29297,206.49021 305.125,209.65625 C 313.47182,211.40601 321.77124,213.35016 330.0625,215.34375 C 353.27261,221.39628 376.63246,226.87787 400,232.28125 L 400,223.9375 C 379.6586,219.42848 359.3716,214.65572 339.3125,209 C 328.09755,205.96573 316.90542,202.82551 305.59375,200.15625 z"
         id="Spectrum Yellow"
         style="fill:#edd400;fill-opacity:1" />
      <path
         d="M 304.84375,215.40625 L 304.8125,215.4375 C 304.62698,218.6497 304.4308,221.88329 304.21875,225.09375 C 315.8125,227.23607 327.29539,229.9333 338.75,232.6875 C 359.09064,237.99175 379.5265,242.83614 400,247.59375 L 400,239.34375 C 382.5639,235.39401 365.18107,231.19681 347.96875,226.34375 C 333.64776,222.46912 319.37623,218.42942 304.84375,215.40625 z"
         id="Spectrum Blue"
         style="fill:#3165a4;fill-opacity:1" />
      <path
         d="M 305.21875,208.15625 C 305.06411,211.13769 304.89498,214.11366 304.71875,217.09375 C 306.94814,217.62201 309.18027,218.15227 311.40625,218.6875 C 338.73591,225.81429 366.26429,232.14863 393.78125,238.5 C 395.85934,238.98299 397.92191,239.45452 400,239.9375 L 400,231.34375 C 373.40246,225.61886 346.82058,219.69843 320.625,212.3125 C 315.49361,210.92417 310.35687,209.52746 305.21875,208.15625 z"
         id="Spectrum Green"
         style="fill:#75d216;fill-opacity:1" />
      <path
         d="M 304.375,222.71875 C 304.18312,225.71896 303.96618,228.72021 303.75,231.71875 C 306.9705,232.47545 310.19326,233.2587 313.40625,234.03125 C 340.73591,241.15804 368.26428,247.46113 395.78125,253.8125 C 397.18814,254.13949 398.59311,254.48551 400,254.8125 L 400,246.28125 C 374.06903,240.68886 348.16579,234.85756 322.625,227.65625 C 316.53799,226.00937 310.46798,224.32805 304.375,222.71875 z"
         id="Spectrum Purple"
         style="fill:#75507b;fill-opacity:1" />
    </g>
    <g
       transform="matrix(0.9932879,0,0,0.9472642,-0.2682985,12.378058)"
       id="Box">
      <path
         d="M 96.152251,115.82338 C 93.956748,121.3989 95.084466,127.79265 94.491914,133.72967 C 94.492806,174.06955 94.784383,214.64014 101.11063,254.55148 C 103.42661,267.10121 105.72382,279.72187 109.06905,292.03205 C 112.03041,296.29185 118.22023,294.73163 122.69042,295.6551 C 178.03026,298.96207 233.53762,298.71765 288.96668,299.0362 C 294.36527,297.89214 292.99078,291.00467 294.36257,286.88316 C 302.0418,243.31967 302.63652,198.89992 304.3835,154.78398 C 303.37154,149.01501 296.0695,150.91299 291.82159,150.18789 C 243.37334,148.60278 194.94484,146.50562 146.53058,144.09877 C 135.49179,143.96307 124.20269,142.3802 113.33992,144.94481 C 109.73111,135.1585 106.52057,124.98857 101.42891,115.91401 C 100.18682,114.15882 97.642232,114.62873 96.152251,115.82338 z"
         id="Box Fill"
         style="fill:#e9b96e;fill-opacity:1" />
      <path
         d="M 141.88188,96.666187 C 127.79009,97.166891 113.36396,96.857354 99.673119,100.58518 C 95.586558,101.56425 94.399553,106.3522 96.693923,109.59051 C 102.28658,121.14523 107.49604,133.03306 113.151,144.55506 C 116.54061,147.91045 122.12223,145.63954 126.50653,146.34305 C 171.57322,147.48187 216.60344,149.74381 261.67336,150.82568 C 283.06646,151.46526 304.49192,152.22572 325.80039,153.61663 C 330.78907,153.19183 329.80064,147.42876 327.43653,144.60236 C 320.9154,131.72955 312.2421,120.20527 307.19603,106.60958 C 304.14025,102.49982 298.47636,105.40201 294.23757,105.15038 C 267.89119,108.40969 241.41056,105.1842 215.35309,101.32271 C 191.06343,97.690448 166.45526,96.405906 141.88188,96.666187 z"
         id="Box Flap Fill"
         style="fill:#e9b96e;fill-opacity:1" />
      <path
         d="M 165.9771,92.506336 C 162.57091,92.490743 159.17317,92.505001 155.76461,92.537585 C 142.13035,92.667934 128.47958,93.164756 114.78972,93.72505 L 88.866696,97.781902 C 88.186036,109.74857 85.559053,142.5299 85.869942,160.50434 C 86.215148,181.44133 86.809367,202.58377 87.087946,207.7217 C 87.890963,222.53299 99.357508,284.27153 100.74523,299.03325 C 153.04891,305.99296 228.09426,302.84958 287.18408,303.34389 L 300.76951,298.90652 C 305.5993,277.58493 307.05212,255.4221 308.60845,233.50219 C 310.05421,206.66754 310.41778,180.85574 310.67677,153.9721 C 319.29347,153.99641 326.16662,153.84229 327.25328,154.06703 L 332.50006,151.09836 C 328.93579,135.20931 305.56837,114.99354 310.41984,99.693624 C 298.77407,100.92971 287.07594,101.6331 275.34759,100.97484 C 267.69756,100.66102 260.12003,100.02527 252.51782,99.131141 C 233.87951,97.336931 215.27984,94.989803 196.61458,93.475057 C 186.40413,92.846034 176.19568,92.553113 165.9771,92.506336 z M 145.05243,99.787372 C 153.548,99.696798 180.7612,100.92961 185.87116,101.25608 C 203.92095,102.84548 221.85505,105.65433 239.77563,108.28712 C 243.73958,108.62724 260.94908,110.01726 262.94893,110.03707 C 275.8171,110.51996 291.52626,109.11343 304.29078,107.67942 C 308.76373,123.32419 320.19448,135.37454 326.31635,150.25464 C 269.78853,146.18327 213.17212,147.12002 156.60785,143.50484 L 115.78911,142.81736 C 112.65848,136.1224 110.08331,129.39092 106.76339,122.7867 C 104.27265,117.9978 101.11315,110.88958 98.549673,105.4747 C 98.354388,100.68448 139.52244,100.02125 145.05243,99.787372 z M 98.206133,115.53691 C 99.428632,119.14271 100.70346,122.68871 102.4223,125.84911 C 106.25668,133.11416 108.09029,141.68514 111.26063,149.25467 C 122.70066,144.52042 137.73285,147.38888 150.11183,147.78596 C 191.61935,149.76222 233.27032,152.05908 274.81666,152.84831 C 276.5899,153.33437 288.68291,154.0644 300.80074,153.94439 C 300.21679,183.13806 299.16815,211.32192 296.89688,240.40824 C 295.11578,258.918 293.28945,277.54256 289.15163,295.53162 C 287.6891,295.55024 206.89688,295.57199 167.97588,294.28165 C 151.77117,293.6004 129.75983,293.10886 112.19756,291.46924 C 112.10594,291.12243 105.06677,260.6613 103.04692,245.50184 C 101.37746,230.82671 99.786535,216.10546 98.955674,201.34689 C 98.070803,185.62851 97.952978,169.90006 97.862594,154.16077 C 97.855759,141.29586 97.860394,128.40778 98.206133,115.53691 z"
         id="Box Outline"
         style="fill:#2e3436;fill-opacity:1" />
      <text
         x="102.96573"
         y="226.0365"
         id="Box Text"
         xml:space="preserve"
         style="font-size:46.79614639px;font-style:normal;font-variant:normal;font-weight:normal;font-stretch:normal;fill:#8f5902;fill-opacity:1;stroke:none;stroke-width:1px;stroke-linecap:butt;stroke-linejoin:miter;stroke-opacity:1;font-family:Action Man;-inkscape-font-specification:Action Man"><tspan
           x="102.96573"
           y="226.0365"
           id="tspan3173"
           style="font-size:60px">sydbox</tspan></text>
    </g>
  </g>
</svg>
